<?xml version="1.0" encoding="UTF-8" standalone="no"?>
<!-- Generator: Adobe Illustrator 9.0, SVG Export Plug-In  -->

<svg
   xmlns:dc="http://purl.org/dc/elements/1.1/"
   xmlns:cc="http://creativecommons.org/ns#"
   xmlns:rdf="http://www.w3.org/1999/02/22-rdf-syntax-ns#"
   xmlns:svg="http://www.w3.org/2000/svg"
   xmlns="http://www.w3.org/2000/svg"
   xmlns:sodipodi="http://sodipodi.sourceforge.net/DTD/sodipodi-0.dtd"
   xmlns:inkscape="http://www.inkscape.org/namespaces/inkscape"
   id="svg2"
   xml:space="preserve"
   height="48"
   width="48"
   version="1.0"
   viewBox="0 0 48 48"
   inkscape:version="0.48.3.1 r9886"
   sodipodi:docname="document-save-as.svg"><defs
   id="defs22" /><sodipodi:namedview
   pagecolor="#ffffff"
   bordercolor="#666666"
   borderopacity="1"
   objecttolerance="10"
   gridtolerance="10"
   guidetolerance="10"
   inkscape:pageopacity="0"
   inkscape:pageshadow="2"
   inkscape:window-width="736"
   inkscape:window-height="480"
   id="namedview20"
   showgrid="false"
   inkscape:zoom="4.9166667"
   inkscape:cx="24"
   inkscape:cy="24"
   inkscape:window-x="0"
   inkscape:window-y="0"
   inkscape:window-maximized="0"
   inkscape:current-layer="g5" /><metadata
   id="metadata37"><rdf:RDF><cc:Work
       rdf:about=""><dc:format>image/svg+xml</dc:format><dc:type
         rdf:resource="http://purl.org/dc/dcmitype/StillImage" /></cc:Work></rdf:RDF></metadata>
	<g
   id="Layer_x0020_4"
   style="stroke:#000">
		<g
   id="g5">
			<path
   id="path7"
   style="stroke-linejoin:round;stroke:#fff;stroke-width:16;stroke-linecap:round;fill:none;stroke-miterlimit:4;stroke-dasharray:none"
   d="m37.3 37h-25.6l-3.5-3.5v-24.1h29.2v27.6h-0.1z" />
			<path
   id="path9"
   style="stroke-linejoin:round;stroke:#000;stroke-width:6.1688;stroke-linecap:round;fill:none"
   d="m37.3 37h-25.6l-3.5-3.5v-24.1h29.2v27.6h-0.1z" />
			<path
   id="path11"
   d="m37.3 37h-25.6l-3.5-3.5v-24.1h29.2v27.6h-0.1z" />
			<path
   id="path13"
   style="stroke:#000;stroke-width:1.5422;fill:#fff"
   d="m31 37.2c0 1-0.8 1.9-1.9 1.9h-15.7c-1 0-1.9-0.8-1.9-1.9v-10c0-1 0.8-1.9 1.9-1.9h15.7c1 0 1.9 0.8 1.9 1.9v10z" />
			<path
   id="path15"
   d="m20.6 36.4h-5.7v-8.4h5.7v8.4z" />
			<path
   id="path17"
   style="stroke:#000;stroke-width:1.5422;fill:#fff"
   d="m35.6 22.9h-25.4v-15.1h25.4v15.2-0.1z" />
			<path
   id="path19"
   style="stroke-linejoin:round;stroke:#fff;stroke-width:12.337;fill:none"
   d="m39.9 33.6l-17-17-9.6-3.8 3.4 10.8 16.5 16.6 6.7-6.7v0.1z" />
			<path
   id="path21"
   style="stroke-linejoin:round;stroke:#000;stroke-width:6.1688;fill:none"
   d="m39.9 33.6l-17-17-9.6-3.8 3.4 10.8 16.5 16.6 6.7-6.7v0.1z" />
			<path
   id="path23"
   d="m39.9 33.6l-17-17-9.6-3.8 3.4 10.8 16.5 16.6 6.7-6.7v0.1z" />
			<path
   id="path25"
   d="m17.4 14.1l-3.1 3.1-1.4-4.7 4.5 1.7v-0.1z" />
			<path
   id="path27"
   style="stroke:#000;stroke-width:1.5422;fill:none"
   d="m16.2 23.4l3.8-0.3 3-3 0.4-3.5" />
			<path
   id="path29"
   style="fill:#fff"
   d="m17.2 14.3l-2.6 2.6 2 6.5 3.3-0.3 3-3 0.4-3-6.2-2.7 0.1-0.1z" />
		</g>
	</g>
	
</svg>