<?xml version="1.0" encoding="UTF-8" standalone="no"?>
<!-- Created with Inkscape (http://www.inkscape.org/) -->

<svg
   xmlns:dc="http://purl.org/dc/elements/1.1/"
   xmlns:cc="http://creativecommons.org/ns#"
   xmlns:rdf="http://www.w3.org/1999/02/22-rdf-syntax-ns#"
   xmlns:svg="http://www.w3.org/2000/svg"
   xmlns="http://www.w3.org/2000/svg"
   xmlns:sodipodi="http://sodipodi.sourceforge.net/DTD/sodipodi-0.dtd"
   xmlns:inkscape="http://www.inkscape.org/namespaces/inkscape"
   version="1.1"
   width="48"
   height="48"
   viewBox="0 0 48 48"
   id="svg2"
   xml:space="preserve"
   inkscape:version="0.48.3.1 r9886"
   sodipodi:docname="history-view.svg"><sodipodi:namedview
   pagecolor="#ffffff"
   bordercolor="#666666"
   borderopacity="1"
   objecttolerance="10"
   gridtolerance="10"
   guidetolerance="10"
   inkscape:pageopacity="0"
   inkscape:pageshadow="2"
   inkscape:window-width="736"
   inkscape:window-height="480"
   id="namedview16"
   showgrid="false"
   inkscape:zoom="4.9166667"
   inkscape:cx="15.506315"
   inkscape:cy="21.753458"
   inkscape:window-x="0"
   inkscape:window-y="0"
   inkscape:window-maximized="0"
   inkscape:current-layer="layer1" /><defs
   id="defs12" /><metadata
   id="metadata19"><rdf:RDF><cc:Work
       rdf:about=""><dc:format>image/svg+xml</dc:format><dc:type
         rdf:resource="http://purl.org/dc/dcmitype/StillImage" /><dc:title /><dc:creator><cc:Agent><dc:title>Luca Ferretti &lt;elle.uca@libero.it&gt;</dc:title></cc:Agent></dc:creator><cc:license
         rdf:resource="http://creativecommons.org/licenses/LGPL/2.1/" /><dc:subject><rdf:Bag><rdf:li>document new</rdf:li><rdf:li>document add</rdf:li></rdf:Bag></dc:subject><dc:description>A paper sheet with a + sign</dc:description></cc:Work><cc:License
       rdf:about="http://creativecommons.org/licenses/LGPL/2.1/"><cc:permits
         rdf:resource="http://web.resource.org/cc/Reproduction" /><cc:permits
         rdf:resource="http://web.resource.org/cc/Distribution" /><cc:requires
         rdf:resource="http://web.resource.org/cc/Notice" /><cc:permits
         rdf:resource="http://web.resource.org/cc/DerivativeWorks" /><cc:requires
         rdf:resource="http://web.resource.org/cc/ShareAlike" /><cc:requires
         rdf:resource="http://web.resource.org/cc/SourceCode" /></cc:License></rdf:RDF></metadata>
	<rect
   width="48"
   height="48"
   x="0"
   y="0"
   id="rect3319"
   style="fill:none" /><path
   d="M 39,41 H 9 V 6 h 17 l 13,14 v 21 z"
   id="path4775"
   style="fill:#ffffff;stroke:#ffffff;stroke-width:12;stroke-linejoin:round" /><path
   d="M 39,41 H 9 V 6 h 17 l 13,14 v 21 z"
   id="path7"
   style="stroke:#000000;stroke-width:4;stroke-linejoin:round" /><path
   d="M 36.991,20 36.997,39.004 11,39 11.017,8.018 24.969,8.0339 36.991,19.9999 z"
   id="path9"
   style="fill:#ffffff" />
<g
   transform="matrix(0.52966102,0,0,0.52966102,10.983051,13.423729)"
   id="layer1"><rect
     width="48"
     height="48"
     x="0"
     y="0"
     id="rect5508"
     style="fill:none" /><path
     d="M 48,24 A 24,24 0 1 1 0,24 24,24 0 1 1 48,24 z"
     id="path3324"
     style="fill:#ffffff;fill-rule:evenodd" /><path
     d="M 44,24 A 20,20 0 1 1 4,24 20,20 0 1 1 44,24 z"
     id="path4052"
     style="fill-rule:evenodd" /><path
     d="M 40,24 A 16,16 0 1 1 8,24 16,16 0 1 1 40,24 z"
     id="path4780"
     style="fill:#ffffff;fill-rule:evenodd" /><path
     d="m 24,24 6,6"
     id="path6236"
     style="fill:none;stroke:#000000;stroke-width:5.66399997;stroke-linecap:round;stroke-miterlimit:4;stroke-dasharray:none" /><path
     d="M 24,23 V 12"
     id="path6964"
     style="fill:none;stroke:#000000;stroke-width:5.66399997;stroke-linecap:round;stroke-miterlimit:4;stroke-dasharray:none" /></g></svg>