<?xml version="1.0" ?><svg height="256px" id="SVGRoot" version="1.1" viewBox="0 0 256 256" width="256px" xmlns="http://www.w3.org/2000/svg" xmlns:cc="http://creativecommons.org/ns#" xmlns:dc="http://purl.org/dc/elements/1.1/" xmlns:inkscape="http://www.inkscape.org/namespaces/inkscape" xmlns:rdf="http://www.w3.org/1999/02/22-rdf-syntax-ns#" xmlns:sodipodi="http://sodipodi.sourceforge.net/DTD/sodipodi-0.dtd" xmlns:svg="http://www.w3.org/2000/svg"><defs id="defs5435"/><g id="layer1"><g id="g6074" style="stroke-width:20;stroke-miterlimit:4;stroke-dasharray:none" transform="translate(-0.499998,-0.499998)"><path d="M 128.5,24.384766 A 104.11588,104.11588 0 0 0 69.876953,42.583984 64.368935,65.459923 0 0 1 87.955078,39.908203 64.368935,65.459923 0 0 1 152.32422,105.36719 64.368935,65.459923 0 0 1 87.955078,170.82812 64.368935,65.459923 0 0 1 24.900391,118.19922 104.11588,104.11588 0 0 0 24.384766,128.5 104.11588,104.11588 0 0 0 128.5,232.61523 104.11588,104.11588 0 0 0 232.61523,128.5 104.11588,104.11588 0 0 0 128.5,24.384766 Z" id="path4347" style="color:#000000;display:inline;overflow:visible;visibility:visible;opacity:1;fill:#e3edf5;fill-opacity:1;stroke:#7f7f7f;stroke-width:20;stroke-linecap:round;stroke-linejoin:round;stroke-miterlimit:4;stroke-dasharray:none;stroke-dashoffset:0;stroke-opacity:1;marker:none;enable-background:accumulate"/></g></g></svg>